<svg xmlns="http://www.w3.org/2000/svg" width="15" height="15" viewBox="0 0 15 15">
  <path d="M8.60124 1.25086C8.60124 0.643104 8.10714 0.149994 7.50024 0.149994C6.89334 0.149994 6.39924 0.643104 6.39924 1.25086V1.75186C4.26524 2.20286 2.65024 4.10786 2.65024 6.39999V9.99999L1.35024 11.5H6.00024C6.00024 12.328 6.67224 13 7.50024 13C8.32824 13 9.00024 12.328 9.00024 11.5H13.6502L12.3502 9.99999V6.39999C12.3502 4.10786 10.7352 2.20286 8.60124 1.75186V1.25086ZM7.50024 2.99999C5.62424 2.99999 4.10024 4.52399 4.10024 6.39999V10.5H10.9002V6.39999C10.9002 4.52399 9.37624 2.99999 7.50024 2.99999Z" fill="currentColor"/>
</svg>
