<svg width="15" height="15" viewBox="0 0 15 15" fill="none" xmlns="http://www.w3.org/2000/svg">
  <path d="M1 1.5C1 1.22386 1.22386 1 1.5 1H2.5C2.72543 1 2.92037 1.15319 2.97412 1.37219L3.33333 2.8H13C13.1615 2.8 13.3136 2.87292 13.4142 2.99863C13.5148 3.12434 13.5527 3.28884 13.5176 3.44618L12.3176 8.84618C12.2659 9.07939 12.0594 9.24138 11.8214 9.24138H4.67857C4.44063 9.24138 4.23412 9.07939 4.18238 8.84618L2.98238 3.44618L2.63333 2H1.5C1.22386 2 1 1.77614 1 1.5ZM3.55556 3.8L4.53333 8.24138H11.9667L12.9444 3.8H3.55556Z" fill="currentColor" fill-rule="evenodd" clip-rule="evenodd"/>
  <circle cx="5" cy="12" r="1" fill="currentColor"/>
  <circle cx="10" cy="12" r="1" fill="currentColor"/>
</svg>
