<svg width="15" height="15" viewBox="0 0 15 15" fill="none" xmlns="http://www.w3.org/2000/svg"><path d="M4.89346 2.35248C3.49195 2.35248 2.35248 3.49359 2.35248 4.90532C2.35248 6.38164 3.20954 7.9168 4.37189 9.33522C5.43285 10.6318 6.69657 11.7488 7.5 12.3995C8.30343 11.7488 9.56715 10.6318 10.6281 9.33522C11.7905 7.9168 12.6475 6.38164 12.6475 4.90532C12.6475 3.49359 11.5081 2.35248 10.1065 2.35248C9.27875 2.35248 8.54555 2.71185 8.05853 3.27108C7.83373 3.52684 7.66339 3.82396 7.5607 4.14971C7.52196 4.27041 7.40703 4.35248 7.28005 4.35248H7.21995C7.09297 4.35248 6.97804 4.27041 6.9393 4.14971C6.83661 3.82396 6.66627 3.52684 6.44147 3.27108C5.95445 2.71185 5.22125 2.35248 4.89346 2.35248ZM1.35248 4.90532C1.35248 2.94498 2.93616 1.35248 4.89346 1.35248C5.8551 1.35248 6.70843 1.74541 7.28005 2.36356C7.85167 1.74541 8.705 1.35248 9.66664 1.35248H10.1065C12.0638 1.35248 13.6475 2.94498 13.6475 4.90532C13.6475 6.74041 12.6013 8.50508 11.4008 9.96927C10.191 11.4444 8.77521 12.6281 7.75679 13.3871C7.60361 13.5015 7.39639 13.5015 7.24321 13.3871C6.22479 12.6281 4.80901 11.4444 3.59922 9.96927C2.39868 8.50508 1.35248 6.74041 1.35248 4.90532Z" fill="currentColor" fill-rule="evenodd" clip-rule="evenodd"></path></svg>