<svg xmlns="http://www.w3.org/2000/svg" width="15" height="15" viewBox="0 0 15 15" fill="none">
  <path fill-rule="evenodd" clip-rule="evenodd" d="M7.07926 0.222253C7.31275 -0.007434 7.68725 -0.007434 7.92074 0.222253L14.6707 6.86227C14.907 7.09465 14.9101 7.47453 14.6778 7.71085C14.4454 7.94718 14.0655 7.95026 13.8292 7.71788L13 6.90201V12.5C13 12.7761 12.7761 13 12.5 13H2.5C2.22386 13 2 12.7761 2 12.5V6.90201L1.17079 7.71788C0.934452 7.95026 0.554565 7.94718 0.322183 7.71085C0.0898 7.47453 0.0928819 7.09465 0.329264 6.86227L7.07926 0.222253ZM7.5 1.49163L12 5.91831V12H9V8.5C9 8.22386 8.77614 8 8.5 8H6.5C6.22386 8 6 8.22386 6 8.5V12H3V5.91831L7.5 1.49163ZM7 12H8V9H7V12Z" fill="currentColor"/>
</svg>
