<svg xmlns="http://www.w3.org/2000/svg" width="15" height="15" viewBox="0 0 15 15" fill="none">
  <path d="M7.5 1C6.39543 1 5.5 1.89543 5.5 3V7.5C5.5 8.60457 6.39543 9.5 7.5 9.5C8.60457 9.5 9.5 8.60457 9.5 7.5V3C9.5 1.89543 8.60457 1 7.5 1Z" fill="currentColor"/>
  <path d="M4 6.5C4.27614 6.5 4.5 6.72386 4.5 7V7.5C4.5 9.15685 5.84315 10.5 7.5 10.5C9.15685 10.5 10.5 9.15685 10.5 7.5V7C10.5 6.72386 10.7239 6.5 11 6.5C11.2761 6.5 11.5 6.72386 11.5 7V7.5C11.5 9.53586 10.0718 11.2225 8.125 11.6555V13C8.125 13.3452 7.84518 13.625 7.5 13.625C7.15482 13.625 6.875 13.3452 6.875 13V11.6555C4.92822 11.2225 3.5 9.53586 3.5 7.5V7C3.5 6.72386 3.72386 6.5 4 6.5Z" fill="currentColor"/>
</svg>
