<!-- Downloaded from @radix-ui/icons -->
<!-- License https://github.com/radix-ui/icons/blob/master/LICENSE -->
<!-- https://github.com/radix-ui/icons/blob/master/packages/radix-icons/icons/share-1.svg -->
<svg width="15" height="15" viewBox="0 0 15 15" fill="none" xmlns="http://www.w3.org/2000/svg">
  <path
    fill-rule="evenodd"
    clip-rule="evenodd"
    d="M3.5 5.00006C3.22386 5.00006 3 5.22392 3 5.50006V11.5001C3 11.7762 3.22386 12.0001 3.5 12.0001H11.5C11.7761 12.0001 12 11.7762 12 11.5001V5.50006C12 5.22392 11.7761 5.00006 11.5 5.00006H10.25C9.97386 5.00006 9.75 4.7762 9.75 4.50006C9.75 4.22392 9.97386 4.00006 10.25 4.00006H11.5C12.3284 4.00006 13 4.67163 13 5.50006V11.5001C13 12.3285 12.3284 13.0001 11.5 13.0001H3.5C2.67157 13.0001 2 12.3285 2 11.5001V5.50006C2 4.67163 2.67157 4.00006 3.5 4.00006H4.75C5.02614 4.00006 5.25 4.22392 5.25 4.50006C5.25 4.7762 5.02614 5.00006 4.75 5.00006H3.5ZM7 1.6364L5.5682 3.0682C5.39246 3.24393 5.10754 3.24393 4.9318 3.0682C4.75607 2.89246 4.75607 2.60754 4.9318 2.4318L7.1818 0.181802C7.26619 0.09741 7.38065 0.049999 7.5 0.049999C7.61935 0.049999 7.73381 0.09741 7.8182 0.181802L10.0682 2.4318C10.2439 2.60754 10.2439 2.89246 10.0682 3.0682C9.89246 3.24393 9.60754 3.24393 9.4318 3.0682L8 1.6364V8.50006C8 8.7762 7.77614 9.00006 7.5 9.00006C7.22386 9.00006 7 8.7762 7 8.50006V1.6364Z"
    fill="currentColor"
  />
</svg>
