<svg width="15" height="15" viewBox="0 0 15 15" fill="none" xmlns="http://www.w3.org/2000/svg"><path d="M12.3536 1.14645C12.1583 0.951184 11.8417 0.951184 11.6464 1.14645C11.4512 1.34171 11.4512 1.65829 11.6464 1.85355L12.7929 3H11.5C10.6074 3 9.81289 3.35388 9.17075 3.86749C8.53766 4.37393 8.02792 5.06209 7.60702 5.77072C7.39643 6.12526 7.20371 6.49397 7.02557 6.85757C6.84682 6.49281 6.6534 6.12292 6.44186 5.76719C6.02012 5.05813 5.50918 4.37032 4.87547 3.86469C4.23265 3.35165 3.43764 3 2.54545 3H1.5C1.22386 3 1 3.22386 1 3.5C1 3.77614 1.22386 4 1.5 4H2.54545C3.19236 4 3.76735 4.24835 4.27453 4.63531C4.79082 5.02968 5.22988 5.61687 5.62814 6.28781C5.82724 6.62334 6.00983 6.97147 6.17887 7.3149C6.00881 7.66095 5.82502 8.01181 5.62439 8.35013C5.22481 9.02423 4.78464 9.61565 4.26793 10.013C3.76035 10.4034 3.18597 10.6538 2.54091 10.6538H1.5C1.22386 10.6538 1 10.8777 1 11.1538C1 11.43 1.22386 11.6538 1.5 11.6538H2.54091C3.43676 11.6538 4.23287 11.3008 4.87623 10.7874C5.51046 10.2809 6.02166 9.5902 6.44378 8.87791C6.65519 8.52159 6.84849 8.15109 7.02658 7.7856C7.20581 8.15319 7.39978 8.52494 7.61186 8.88283C8.03424 9.59528 8.54503 10.2862 9.17917 10.7932C9.82236 11.3075 10.6179 11.6538 11.5091 11.6538H12.7929L11.6464 12.8003C11.4512 12.9956 11.4512 13.3122 11.6464 13.5074C11.8417 13.7027 12.1583 13.7027 12.3536 13.5074L14.3536 11.5074C14.5488 11.3122 14.5488 10.9956 14.3536 10.8003L12.3536 8.80029C12.1583 8.60503 11.8417 8.60503 11.6464 8.80029C11.4512 8.99556 11.4512 9.31214 11.6464 9.5074L12.7929 10.6538H11.5091C10.8612 10.6538 10.2857 10.4043 9.77842 10.016C9.26212 9.62068 8.82302 9.03005 8.42437 8.35556C8.22488 8.01879 8.04168 7.66772 7.87244 7.3213C8.04145 6.97741 8.22393 6.62877 8.42201 6.29428C8.8199 5.61791 9.25734 5.02607 9.77175 4.63251C10.2771 4.24612 10.8526 4 11.5 4H12.7929L11.6464 5.14645C11.4512 5.34171 11.4512 5.65829 11.6464 5.85355C11.8417 6.04882 12.1583 6.04882 12.3536 5.85355L14.3536 3.85355C14.5488 3.65829 14.5488 3.34171 14.3536 3.14645L12.3536 1.14645Z" fill="currentColor" fill-rule="evenodd" clip-rule="evenodd"></path></svg>