<svg xmlns="http://www.w3.org/2000/svg" width="15" height="15" viewBox="0 0 15 15" fill="currentColor">
  <path d="M7.5 0a.5.5 0 0 1 .473.338l1.528 4.493 4.493 1.528a.5.5 0 0 1 0 .946l-4.493 1.528-1.528 4.493a.5.5 0 0 1-.946 0L5.499 8.833 1.006 7.305a.5.5 0 0 1 0-.946l4.493-1.528L7.027.338A.5.5 0 0 1 7.5 0Z"/>
  <path d="M12.5 0a.4.4 0 0 1 .378.27l.622 1.83 1.83.622a.4.4 0 0 1 0 .756l-1.83.622-.622 1.83a.4.4 0 0 1-.756 0l-.622-1.83-1.83-.622a.4.4 0 0 1 0-.756l1.83-.622.622-1.83A.4.4 0 0 1 12.5 0Z"/>
</svg>
